<?xml version="1.0" encoding="UTF-8"?>
<svg id="Capa_2" data-name="Capa 2" xmlns="http://www.w3.org/2000/svg" xmlns:xlink="http://www.w3.org/1999/xlink" viewBox="0 0 2616.74 2614.21">
  <defs>
    <style>
      .cls-1, .cls-2 {
        fill: #fff;
      }

      .cls-2 {
        stroke: #371a45;
        stroke-miterlimit: 10;
        stroke-width: 10px;
      }

      .cls-3 {
        clip-path: url(#clippath-2);
      }

      .cls-4 {
        clip-path: url(#clippath-1);
      }

      .cls-5 {
        fill: #0af;
      }

      .cls-6 {
        fill: #3caf54;
      }

      .cls-7 {
        clip-path: url(#clippath);
      }

      .cls-8 {
        fill: none;
      }

      .cls-9 {
        fill: #371a45;
      }
    </style>
    <clipPath id="clippath">
      <path class="cls-8" d="m2588.95,1307.11c0,555.53-354.07,1028.3-848.8,1205.02-134.54,48.09-279.44,74.29-430.52,74.29-104.73,0-206.54-12.58-303.96-36.34C445.83,2413.66,30.33,1908.92,30.33,1307.11c0-81.66,7.65-161.57,22.31-238.99C120.05,711.06,335.89,406.48,633.53,220.85,829.71,98.48,1061.47,27.8,1309.63,27.8c1.88,0,3.68,0,5.56.07,519.4,2.16,965.68,313.83,1164.02,760.19,70.55,158.65,109.73,334.26,109.73,519.05Z"/>
    </clipPath>
    <clipPath id="clippath-1">
      <path class="cls-8" d="m2588.95,1307.11c0,555.53-354.07,1028.3-848.8,1205.02-134.54,48.09-279.44,74.29-430.52,74.29-104.73,0-206.54-12.58-303.96-36.34C445.83,2413.66,30.33,1908.92,30.33,1307.11c0-81.66,7.65-161.57,22.31-238.99C120.05,711.06,335.89,406.48,633.53,220.85,829.71,98.48,1061.47,27.8,1309.63,27.8c1.88,0,3.68,0,5.56.07,519.4,2.16,965.68,313.83,1164.02,760.19,70.55,158.65,109.73,334.26,109.73,519.05Z"/>
    </clipPath>
    <clipPath id="clippath-2">
      <path class="cls-8" d="m2588.95,1307.11c0,555.53-354.07,1028.3-848.8,1205.02-134.54,48.09-279.44,74.29-430.52,74.29-104.73,0-206.54-12.58-303.96-36.34C445.83,2413.66,30.33,1908.92,30.33,1307.11c0-81.66,7.65-161.57,22.31-238.99C120.05,711.06,335.89,406.48,633.53,220.85,829.71,98.48,1061.47,27.8,1309.63,27.8c1.88,0,3.68,0,5.56.07,519.4,2.16,965.68,313.83,1164.02,760.19,70.55,158.65,109.73,334.26,109.73,519.05Z"/>
    </clipPath>
  </defs>
  <g id="Layer_1" data-name="Layer 1">
    <g>
      <path class="cls-5" d="m2558.62,1300.37c0,555.53-354.07,1028.3-848.8,1205.02-134.54,48.09-279.44,74.29-430.52,74.29-104.73,0-206.54-12.58-303.96-36.34C415.49,2406.93,0,1902.19,0,1300.39c0-81.66,7.65-161.57,22.31-238.99C89.72,704.33,305.56,399.75,603.2,214.13,799.38,91.75,1031.14,21.07,1279.3,21.07c1.88,0,3.68,0,5.56.07,519.4,2.16,965.68,313.83,1164.02,760.19,70.54,158.64,109.73,334.24,109.73,519.03Z"/>
      <g>
        <g class="cls-7">
          <path class="cls-6" d="m2479.32,841.07c29.47,70.75-150.56,19.22-209.12,68.66-58.58,49.44-112.42,109.58-185.41,132.98-89.49,28.69-193.99-9.16-250.56-84.19s-65.6-180.9-29.83-267.79c22.36-54.29,61.53-108.11,49.61-165.6-10.76-51.89-61.36-86.83-112.56-100.5-51.2-13.68-105.19-11.54-157.57-19.55-52.38-8.01-107.18-29.52-134.07-75.18-24.65-41.87-20.14-95.9-.34-140.26,19.8-44.36,53.01-81.14,85.67-117.09.02,0,616.76-17.62,944.18,768.52Z"/>
        </g>
        <g class="cls-4">
          <path class="cls-6" d="m1222.24,2558.41c-76.59-2.88,45.62-144.75,25.28-218.65-20.35-73.89-52.4-147.99-43.07-224.06,11.44-93.27,89.58-172.3,181.42-192.24,91.84-19.95,191.75,16.21,255.65,85.11,39.93,43.04,72.38,101.17,129.57,114.42,51.62,11.96,104.55-19.34,138.42-60.1,33.87-40.75,54.54-90.69,83.76-134.89,29.23-44.2,71.71-84.94,124.43-90.23,48.34-4.85,95.52,21.88,127.5,58.45s51.46,82.13,70.43,126.86c0-.01-242.38,567.36-1093.39,535.32Z"/>
        </g>
        <g class="cls-3">
          <path class="cls-6" d="m618.23,245.24c63.98-42.2,47.08,144.29,106.61,192.57,59.53,48.28,128.7,89.91,165.35,157.22,44.94,82.52,27.34,192.27-35.77,261.89-63.11,69.63-165.41,98.33-257.47,79.47-57.51-11.79-117.72-40.19-171.96-17.72-48.95,20.3-73.79,76.55-77.64,129.39s8.37,105.49,10.31,158.45c1.94,52.95-8.92,110.8-48.74,145.77-36.5,32.06-90.43,37.75-137.71,26.6s-89.63-36.87-131.07-62.22c.01,0-132.81-602.52,578.08-1071.42Z"/>
        </g>
      </g>
      <g>
        <path class="cls-9" d="m2504.62,776.77c-13.86-31.19-28.85-61.64-44.93-91.33-50.83-93.93-112.44-180.2-182.88-257.49-73.06-80.2-155.59-150.76-245.44-210.26C1823.01,79.7,1575.38,1.22,1315.74.07c-2.05-.06-4.04-.07-6.09-.07-21.04,0-42.04.5-62.96,1.5-97.86,4.68-194.37,20.25-287.86,46.23-67.45,18.75-133.32,42.91-196.98,72.32-49.08,22.65-96.84,48.42-143.02,77.22C309.04,390.46,92.71,705.99,25.33,1062.95c-15.12,79.84-22.79,161.98-22.79,244.16,0,298.79,98.13,580.03,283.78,813.32,180.16,226.38,433.29,388.56,712.78,456.65,101.02,24.63,205.5,37.13,310.56,37.13,150.95,0,298.95-25.53,439.86-75.9,518.72-185.3,867.24-680.07,867.24-1231.2,0-184.56-37.72-362.99-112.12-530.34Zm-773.83,1709.18c-134.9,48.23-276.59,72.68-421.15,72.68-100.62,0-200.66-11.97-297.38-35.56C450.49,2386.19,58.13,1886.16,58.13,1307.11c0-78.71,7.34-157.38,21.82-233.83C144.48,731.54,351.61,429.44,648.24,244.44c26.39-16.47,53.32-31.89,80.74-46.26,16.78-8.8,33.73-17.21,50.87-25.2,34.72-16.24,70.12-30.83,106.12-43.77,30.9-11.1,62.23-20.98,93.91-29.61.06-.01.11-.02.16-.04,2.22-.61,4.44-1.2,6.65-1.79,32.55-8.66,65.47-16.02,98.68-22.03,69.46-12.6,140.2-19.35,211.53-20.07,4.24-.05,8.48-.07,12.74-.07h.81c1.25,0,2.47.01,3.73.05l.9.02c232.25.97,454.49,66.55,645.43,182.88h.01c33.21,20.22,65.49,42,96.71,65.24,52.88,39.35,102.71,82.9,148.95,130.29,3.13,3.19,6.23,6.4,9.32,9.63,73.14,76.57,137.02,162.88,189.42,257.48,17.63,31.81,33.95,64.55,48.89,98.17,71.23,160.19,107.34,331.02,107.34,507.75,0,527.69-333.69,1001.43-830.35,1178.84Z"/>
        <path class="cls-1" d="m2057.24,303.78c-70.63,17.98-142.25,32.07-214.89,40.37-162.36,18.52-330.99,7-481.3-51.96-108.58-42.58-206.79-126.47-275.67-216.46,69.46-12.6,140.2-19.35,211.53-20.07,4.24-.05,8.48-.07,12.74-.07h.81c1.25,0,2.47.01,3.73.05l.9.02c232.25.97,454.49,66.55,645.43,182.88h.01c33.21,20.22,65.49,42,96.71,65.24Z"/>
        <path class="cls-8" d="m2215.5,443.7c-.62.15-1.24.3-1.85.45-96.66,23.45-194.58,40.85-293.71,48.82-200.36,16.1-407-7.8-588.85-93.42-139.94-65.88-263.99-170.66-344.39-301.78,32.55-8.66,65.47-16.02,98.68-22.03,68.87,90,167.09,173.88,275.67,216.46,150.32,58.96,318.94,70.47,481.3,51.96,72.64-8.3,144.26-22.39,214.89-40.37,52.88,39.35,102.71,82.9,148.95,130.29,3.13,3.19,6.23,6.4,9.32,9.63Z"/>
      </g>
      <path class="cls-9" d="m1148.42,1117.03c-16.38,87.06-100.25,144.34-187.31,127.96-70.72-13.32-121.79-71.15-129.69-139.06-2.65-22.79,15.17-42.67,38.12-42.81,31.54-.21,76.68-12.93,106.49-74.85,38.44-79.82,188.79,41.7,172.39,128.76Z"/>
      <path class="cls-9" d="m1476.85,1129.3c16.38,87.06,100.25,144.34,187.31,127.96,70.72-13.32,121.79-71.15,129.69-139.06,2.65-22.79-15.17-42.67-38.12-42.81-31.54-.21-76.68-12.93-106.49-74.85-38.45-79.8-188.79,41.71-172.39,128.76Z"/>
      <path class="cls-9" d="m1583.5,1431.96c-24.23-9.19-49.95-13.97-75.76-15.91-25.83-1.94-51.89.35-77.31,5.15s-49.81,13.45-73.24,24.37c-23.39,10.89-44.76,25.24-64.57,41.73-19.79,16.46-36.86,36.1-51.22,57.44-1.6,2.37-3.14,4.77-4.65,7.2-2.44,3.83-3.76,7.95-3.95,12.38-.99,4.44-.79,8.86.59,13.29,1.03,4.34,3.02,8.12,5.96,11.33,2.35,3.62,5.46,6.48,9.35,8.58,2.65,1.11,5.31,2.24,7.96,3.36,5.9,1.59,11.81,1.59,17.72,0,2.65-1.11,5.31-2.24,7.96-3.36,5-2.96,8.99-6.94,11.96-11.96,4.22-6.79,8.77-13.35,13.67-19.68-1.73,2.25-3.48,4.5-5.21,6.75,9.97-12.87,21.25-24.68,33.58-35.32,3.5-3.02,7.08-5.94,10.74-8.76-2.25,1.73-4.5,3.48-6.75,5.21,14.23-10.95,29.55-20.45,45.68-28.34,4.62-2.27,9.29-4.39,14.03-6.39-2.65,1.11-5.31,2.24-7.96,3.36,17.51-7.37,35.76-12.97,54.39-16.6,5.32-1.04,10.68-1.91,16.04-2.64-2.96.4-5.9.79-8.86,1.19,17.7-2.35,35.64-2.98,53.45-1.68,5.03.36,10.05.88,15.05,1.55-2.96-.4-5.9-.79-8.86-1.19,17.93,2.41,35.56,6.8,52.48,13.22,4.44,1.39,8.86,1.59,13.29.59,4.44-.21,8.57-1.51,12.38-3.95,3.88-2.1,7-4.96,9.35-8.58,2.94-3.22,4.93-6.99,5.96-11.33.4-2.96.8-5.9,1.19-8.86-.02-6.01-1.54-11.62-4.54-16.82-1.73-2.24-3.48-4.5-5.21-6.75-4.17-4.14-9.07-7-14.71-8.58h0Z"/>
      <path class="cls-2" d="m1301.27,1529.97c-8.57,13.75-26.68,17.97-40.44,9.42l-359.57-223.53c-19,10.76-43.13,11.05-62.96-1.27-28.9-17.97-37.75-55.93-19.78-84.82,17.97-28.88,55.97-37.72,84.87-19.76,19.9,12.37,30.28,34.22,28.96,56.05l359.49,223.49c13.77,8.57,17.99,26.66,9.43,40.42Z"/>
      <ellipse class="cls-5" cx="870.33" cy="1260.79" rx="36.04" ry="36.06" transform="translate(-432.64 2066.6) rotate(-87.12)"/>
      <polygon class="cls-5" points="1121.8 1403.69 890.61 1259.9 878.88 1278.7 1110.07 1422.48 1121.8 1403.69"/>
      <path class="cls-9" d="m1341.86,1461.95s-118.76,51.91-99.58,119.33h0c43.55-24.28,77.33-62.9,95.62-109.29l3.96-10.05Z"/>
      <path class="cls-9" d="m726.57,583.98l-255.8,255.8c-35.42,35.42-92.84,35.42-128.27,0h0c-35.42-35.42-35.42-92.84,0-128.27l255.8-255.8c35.42-35.42,92.84-35.42,128.27,0h0c35.42,35.43,35.42,92.86,0,128.27Z"/>
      <path class="cls-1" d="m640.91,627.02l-127.1,127.1c-23.65,23.65-62,23.65-85.66,0h0c-23.65-23.65-23.65-62,0-85.66l127.1-127.1c23.65-23.65,62-23.65,85.66,0h0c23.66,23.65,23.66,62,0,85.66Z"/>
      <g>
        <path class="cls-1" d="m2440.94,721.85c-227.94,61.92-516.39,138.68-751.42,115.01-207.41-20.89-429.09-75.95-604.16-189.1-147.35-95.23-342.9-281.13-405.73-443.82,66.66-31.17,195.76-94.9,266.73-113.81,80.4,131.12,244.76,243.55,384.7,309.43,181.86,85.62,388.49,109.53,588.85,93.42,99.76-8.02,225.42-25.4,322.68-49.08,73.15,76.56,145.94,183.35,198.34,277.95Z"/>
        <path class="cls-9" d="m2432.09,689.72c-130.9,35.55-262.26,70.41-395.99,93.72-17.29,3.02-34.62,5.83-51.98,8.41-8.13,1.21-16.26,2.37-24.4,3.48,6.98-.94-4.84.62-6.36.81-5.07.64-10.13,1.26-15.2,1.87-33.43,3.95-66.98,6.91-100.62,8.53-65.46,3.16-130.2-.21-195.17-8.32-3.95-.5-7.9-1.01-11.85-1.51-1.3-.17-6.56-.91-.05,0-1.97-.28-3.96-.55-5.94-.82-8.93-1.25-17.86-2.56-26.77-3.93-16.43-2.53-32.83-5.3-49.18-8.29-33.42-6.11-66.67-13.18-99.65-21.35-66.49-16.44-131.39-37.67-194.82-63.46-5.43-2.21,7.12,3.09-1.76-.74-1.84-.8-3.68-1.59-5.53-2.39-3.68-1.6-7.36-3.21-11.01-4.85-7.77-3.47-15.49-7.03-23.17-10.68-15.29-7.26-30.41-14.88-45.33-22.89-27.66-14.86-54.59-31.06-80.63-48.61-11.48-7.73-22.8-15.7-33.98-23.86-5.48-4-10.93-8.05-16.35-12.13-2.75-2.08-5.49-4.19-8.24-6.26,5.59,4.23,1.72,1.33.55.42-2.07-1.61-4.14-3.24-6.22-4.86-23.92-18.82-47.2-38.44-69.86-58.74-47.28-42.4-91.99-87.83-132.67-136.61-4.74-5.68-9.42-11.41-14.03-17.19-2.29-2.87-4.56-5.76-6.82-8.64-3.85-4.91-.55-.71.18.25-1.65-2.17-3.31-4.33-4.96-6.51-8.87-11.77-17.46-23.74-25.71-35.94-15.81-23.39-30.44-47.65-43.03-72.93-3.01-6.03-5.9-12.14-8.65-18.3-.64-1.43-1.22-2.87-1.89-4.29-1.96-4.17,2.33,5.8.63,1.55-1.27-3.2-2.59-6.37-3.84-9.57-5.1,12.54-10.22,25.08-15.32,37.64,43.5-20.36,86.72-41.28,130.54-60.96,11.98-5.38,24.02-10.69,36.1-15.86l4.76-2.04c-4.01,1.68-4.3,1.81-.86.36,3.13-1.3,6.24-2.61,9.37-3.89,5.34-2.19,10.69-4.36,16.06-6.48,20.59-8.13,41.43-15.83,62.8-21.59-12.54-5.1-25.08-10.22-37.64-15.32,48.19,78.07,116.16,141.48,188.86,196.37,71.13,53.7,149.12,99.69,230.78,135.44,186.21,81.51,392.42,103.88,593.77,86.61,107.47-9.21,215.54-23.93,320.46-49.34-10.81-2.86-21.62-5.71-32.43-8.57,19.23,20.2,37.48,41.31,54.96,63.03,4.22,5.25,8.37,10.55,12.53,15.85,1.42,1.83,1.28,1.65-.42-.56,1.27,1.66,2.54,3.32,3.82,4.99,1.9,2.51,3.81,5.02,5.7,7.54,8.87,11.84,17.56,23.82,26.06,35.92,32.69,46.49,62.89,94.76,90.47,144.44,8.47,15.26,30.69,21.56,45.6,11.96,15.45-9.96,21.01-29.28,11.96-45.59-56.43-101.65-123.22-200.32-203.54-284.71-8.32-8.75-20.99-11.34-32.43-8.57-45.34,10.98-91.24,19.58-137.3,26.86-11.29,1.78-22.59,3.49-33.9,5.11-5.14.74-10.28,1.44-15.43,2.17-10.2,1.43,6.74-.86-3.45.47-4.08.53-8.18,1.07-12.27,1.59-22.95,2.92-45.94,5.55-68.96,7.84-96.13,9.57-192.79,11.78-289.01,2.07-11.54-1.16-23.03-2.52-34.53-3.97-10.06-1.27,3.95.62-2.1-.28-2.61-.39-5.21-.74-7.82-1.11-7.28-1.07-14.57-2.19-21.84-3.41-23.85-3.95-47.56-8.65-71.1-14.14-46.99-10.97-93.26-25.09-138.21-42.65-5.86-2.29-11.69-4.68-17.53-7.05-9.61-3.91,5.86,2.61-3.65-1.54-1.93-.84-3.85-1.66-5.78-2.51-10.88-4.76-21.65-9.74-32.34-14.89-18.95-9.14-37.66-18.78-56.1-28.9-38.55-21.13-76-44.3-111.99-69.57-10.24-7.19-20.36-14.54-30.34-22.09-2.3-1.74-4.6-3.49-6.88-5.25,4.6,3.54-.74-.59-2.36-1.87-5.27-4.16-10.52-8.36-15.7-12.61-19.05-15.63-37.5-32-55.12-49.23-17.07-16.7-33.4-34.18-48.61-52.6-3.42-4.14-6.77-8.34-10.08-12.57,4.96,6.34-.51-.73-1.25-1.71-2.11-2.82-4.19-5.66-6.24-8.52-6.56-9.15-12.78-18.53-18.7-28.11-7.8-12.65-23.13-19.23-37.64-15.32-48.82,13.17-95.72,34.51-141.74,55.12-44.64,19.99-88.65,41.32-132.95,62.04-12.11,5.67-20.25,24.95-15.32,37.64,21.85,56.09,53.06,107.43,89.21,155.41,39.77,52.77,84,101.91,131.59,147.72,91.19,87.75,193.44,165.81,307.94,220.56,127.28,60.87,264.63,98.26,403.76,119.73,67.26,10.38,135.04,18.49,203.18,18.37,71.19-.12,142.12-7.31,212.5-17.56,137.9-20.08,273.31-54.3,407.72-90.48,15.46-4.16,30.91-8.35,46.36-12.54,16.82-4.57,28.8-23.91,23.28-40.99-5.52-17.23-22.91-28.17-40.94-23.28Z"/>
      </g>
      <g>
        <path class="cls-1" d="m2290.05,497.67c-183.41,54.03-428.49,113.55-620.19,103.11-169.18-9.21-319.98-54.44-465.6-134.43-136.09-74.74-245.42-187.31-318.29-337.14-.23-.46-.46-.93-.68-1.41-2.16-4.45-4.29-8.97-6.41-13.55,53.26-25.68,136.26-39.68,193.38-56.22,4.24,5.93,8.62,11.83,13.11,17.7,68.87,90,167.09,173.88,275.67,216.46,150.32,58.96,318.94,70.47,481.3,51.96,72.64-8.3,172.81-28.61,243.44-46.59l21.1,14.72c71.81,50.15,133.88,112.97,183.17,185.38h0Z"/>
        <path class="cls-9" d="m2281.19,465.54c-100.73,29.65-202.57,56.05-305.78,75.5-26.84,5.05-53.76,9.63-80.8,13.6-3.2.47-6.41.93-9.61,1.38-1.6.23-3.2.45-4.8.67-1.22.17-6.52.9-1.56.22,4.94-.68-.33.04-1.56.21-1.6.21-3.19.41-4.79.62-3.57.46-7.16.91-10.75,1.33-13.41,1.62-26.85,3.08-40.3,4.34-50.29,4.7-100.94,6.77-151.39,4.05-28.09-1.51-56.04-4.24-83.94-7.71-4.8-.59,6.26.88,1.48.21-1.64-.23-3.27-.45-4.91-.69-3.26-.46-6.52-.94-9.78-1.44-6.89-1.04-13.79-2.16-20.66-3.34-13.67-2.35-27.29-4.97-40.85-7.85-52.95-11.27-104.97-26.74-155.54-46.07-6.05-2.31-12.08-4.68-18.08-7.1-3.01-1.21-6.01-2.44-9-3.68-1.3-.53-3.2-1.67-4.5-1.87,1.15.48,2.31.98,3.47,1.47-1.13-.47-2.24-.96-3.37-1.43-12.37-5.3-24.66-10.82-36.84-16.56-24.7-11.63-49.04-24.09-72.85-37.47-20.89-11.73-41.24-24.43-60.94-38.07-9.96-6.91-19.48-14.41-29.37-21.4.58.41,6.14,4.81,1.67,1.28-1.11-.88-2.24-1.76-3.36-2.64-2.24-1.77-4.46-3.55-6.68-5.33-4.71-3.81-9.37-7.67-13.98-11.6-36.68-31.18-70.27-65.95-100.22-103.64-.68-.86-6.83-8.47-3.47-4.36,3.11,3.78.01.01-.73-.97l-2.65-3.49c-3.74-4.98-7.44-10-11.06-15.06-7.31-10.22-14.37-20.61-21.18-31.18-13.68-21.22-26.32-43.09-37.95-65.49-5.9-11.38-11.51-22.89-16.92-34.51-3.99,15.2-7.97,30.39-11.96,45.6,3.53-1.68,7.12-3.2,10.66-4.82-1.42.61-2.84,1.21-4.25,1.81,1.26-.51,2.51-1.02,3.77-1.51,1.6-.63,3.2-1.25,4.81-1.85,7.67-2.91,15.45-5.55,23.27-8.03,16.54-5.25,33.31-9.77,50.14-14.03,32.32-8.19,64.97-15.18,97.02-24.4-12.54-5.1-25.08-10.22-37.64-15.32,44.74,62.22,97.65,117.09,158.37,163.84,59.54,45.84,125.66,79.36,197.16,102.32,147.83,47.49,308.59,54.39,461.85,34.18,78.68-10.37,156.85-25.96,233.77-45.49-8.55-1.11-17.12-2.24-25.68-3.36,6.97,4.86,13.93,9.72,20.9,14.59,7.63,5.34,15.17,10.81,22.6,16.43.91.69,5.04,3.94,1.41,1.05-3.43-2.73-.19-.15.44.34,1.89,1.49,3.78,2.97,5.67,4.47,4.39,3.5,8.74,7.04,13.04,10.64,32.55,27.22,62.7,57.31,89.95,89.83,3.87,4.6,7.66,9.26,11.4,13.96,1.48,1.85,3.25,5.32,5.21,6.62-.11-.07-3.78-4.97-1.54-1.99.97,1.28,1.94,2.56,2.91,3.83,7,9.29,13.79,18.76,20.35,28.38,9.79,14.38,29.75,22.17,45.6,11.96,14.32-9.23,22.44-30.18,11.96-45.6-52.89-77.71-119.3-144.33-196.3-198.14-4.76-3.32-9.52-6.65-14.27-9.97-1.7-1.19-3.37-2.53-5.15-3.6-9.44-5.67-19.81-5.3-30.09-2.71-20.65,5.2-41.39,10.03-62.2,14.59-44.69,9.79-89.67,18.48-134.9,25.33-5.11.78-10.23,1.51-15.34,2.23-1.38.19-2.92.29-4.29.59.62-.13,8.29-1.09,2.5-.34-2.77.35-5.54.71-8.31,1.05-11.67,1.43-23.37,2.67-35.08,3.76-24.9,2.31-49.89,3.9-74.89,4.7-49.95,1.61-100.02.1-149.72-5.07-5.97-.62-11.95-1.3-17.91-2.02-2.21-.27-7.12-.02-8.93-1.14.1.06,6.42.9,2.48.33-2.12-.3-4.24-.59-6.36-.9-12.29-1.78-24.53-3.81-36.73-6.06-24.32-4.51-48.47-10.01-72.33-16.54-23.79-6.52-47.28-14.08-70.37-22.74-5.4-2.02-10.78-4.11-16.13-6.28-1.04-.42-2.16-1.05-3.25-1.33,6.71,1.73,3.55,1.53,1.49.63-2.87-1.25-5.73-2.5-8.58-3.79-10.38-4.7-20.61-9.75-30.67-15.11-20.33-10.82-40-22.89-58.95-35.96-9.51-6.56-19.05-13.26-28.08-20.48.75.59,5.72,4.48,1.07.79-.93-.75-1.88-1.49-2.82-2.23-2.19-1.74-4.37-3.49-6.54-5.26-4.64-3.78-9.25-7.62-13.79-11.52-34.56-29.64-66.37-62.54-94.88-98.02-1.67-2.08-3.33-4.17-4.98-6.26-.93-1.19-1.84-2.42-2.8-3.59.15.18,4.1,5.39,1.6,2.05-4.11-5.53-8.25-11.01-12.27-16.6-8.65-12.03-22.5-19.67-37.64-15.32-67.23,19.34-137.69,29.23-201.34,59.58-6.87,3.27-13.66,12.63-15.32,19.92-2.1,9.2-.61,17.15,3.36,25.68,43.17,92.95,103.31,178.55,178.23,248.68,76.59,71.7,167.15,125.15,263.31,166.2,105.93,45.22,216.78,73.65,331.48,84.64,108.93,10.45,217.7.56,325.34-17.36,106.37-17.7,211.3-43.57,314.95-73.15,11.84-3.38,23.66-6.81,35.48-10.29,16.71-4.92,28.89-23.65,23.28-40.99-5.5-16.95-23.1-28.56-41.02-23.29Z"/>
      </g>
    </g>
  </g>
</svg>