<?xml version="1.0" encoding="UTF-8"?>
<svg id="Capa_2" data-name="Capa 2" xmlns="http://www.w3.org/2000/svg" xmlns:xlink="http://www.w3.org/1999/xlink" viewBox="0 0 2711.41 2656.98">
  <defs>
    <style>
      .cls-1 {
        fill: #fff;
      }

      .cls-2 {
        clip-path: url(#clippath-2);
      }

      .cls-3 {
        clip-path: url(#clippath-1);
      }

      .cls-4 {
        fill: #efeddc;
        stroke-width: 50px;
      }

      .cls-4, .cls-5 {
        stroke: #371a45;
        stroke-miterlimit: 10;
      }

      .cls-5 {
        stroke-width: 48px;
      }

      .cls-5, .cls-6 {
        fill: none;
      }

      .cls-7 {
        fill: #0af;
      }

      .cls-8 {
        fill: #3caf54;
      }

      .cls-9 {
        clip-path: url(#clippath);
      }

      .cls-10 {
        fill: #371a45;
      }
    </style>
    <clipPath id="clippath">
      <path class="cls-6" d="m2690.8,1299.02c0,555.53-354.07,1028.3-848.8,1205.02-134.54,48.09-279.44,74.29-430.52,74.29-104.73,0-206.54-12.58-303.96-36.34-559.85-136.42-975.34-641.15-975.34-1242.96,0-81.66,7.65-161.57,22.31-238.99C221.9,702.98,437.74,398.4,735.38,212.77,931.56,90.4,1163.32,19.72,1411.48,19.72c1.88,0,3.68,0,5.56.07,519.4,2.16,965.68,313.83,1164.02,760.19,70.54,158.64,109.73,334.26,109.73,519.03Z"/>
    </clipPath>
    <clipPath id="clippath-1">
      <path class="cls-6" d="m2690.8,1299.02c0,555.53-354.07,1028.3-848.8,1205.02-134.54,48.09-279.44,74.29-430.52,74.29-104.73,0-206.54-12.58-303.96-36.34-559.85-136.42-975.34-641.15-975.34-1242.96,0-81.66,7.65-161.57,22.31-238.99C221.9,702.98,437.74,398.4,735.38,212.77,931.56,90.4,1163.32,19.72,1411.48,19.72c1.88,0,3.68,0,5.56.07,519.4,2.16,965.68,313.83,1164.02,760.19,70.54,158.64,109.73,334.26,109.73,519.03Z"/>
    </clipPath>
    <clipPath id="clippath-2">
      <path class="cls-6" d="m2690.8,1299.02c0,555.53-354.07,1028.3-848.8,1205.02-134.54,48.09-279.44,74.29-430.52,74.29-104.73,0-206.54-12.58-303.96-36.34-559.85-136.42-975.34-641.15-975.34-1242.96,0-81.66,7.65-161.57,22.31-238.99C221.9,702.98,437.74,398.4,735.38,212.77,931.56,90.4,1163.32,19.72,1411.48,19.72c1.88,0,3.68,0,5.56.07,519.4,2.16,965.68,313.83,1164.02,760.19,70.54,158.64,109.73,334.26,109.73,519.03Z"/>
    </clipPath>
  </defs>
  <g id="Layer_1" data-name="Layer 1">
    <g>
      <path class="cls-7" d="m2690.8,1299.02c0,555.53-354.07,1028.3-848.8,1205.02-134.54,48.09-279.44,74.29-430.52,74.29-104.73,0-206.54-12.58-303.96-36.34-559.85-136.42-975.34-641.15-975.34-1242.96,0-81.66,7.65-161.57,22.31-238.99C221.9,702.98,437.74,398.4,735.38,212.77,931.56,90.4,1163.32,19.72,1411.48,19.72c1.88,0,3.68,0,5.56.07,519.4,2.16,965.68,313.83,1164.02,760.19,70.54,158.64,109.73,334.26,109.73,519.03Z"/>
      <g>
        <g class="cls-9">
          <path class="cls-8" d="m2581.17,832.97c29.47,70.75-150.56,19.22-209.12,68.66-58.58,49.44-112.42,109.58-185.41,132.98-89.49,28.69-193.99-9.16-250.56-84.19-56.58-75.03-65.6-180.9-29.83-267.79,22.36-54.29,61.53-108.11,49.61-165.6-10.76-51.89-61.36-86.83-112.56-100.5-51.2-13.68-105.19-11.54-157.57-19.55-52.38-8.01-107.18-29.52-134.07-75.18-24.65-41.87-20.14-95.9-.34-140.26,19.81-44.36,53.01-81.14,85.67-117.09.02,0,616.75-17.62,944.18,768.52Z"/>
        </g>
        <g class="cls-3">
          <path class="cls-8" d="m1286.06,2571.79c-79.83-4.37,44.75-145.17,22.14-220.1-22.61-74.93-57.41-150.3-49.16-226.87,10.12-93.87,90.01-172.1,185.27-190.46s200.03,20.04,267.91,90.77c42.41,44.18,77.33,103.46,137.16,117.93,53.99,13.06,108.52-17.51,143.02-57.97,34.49-40.46,55.07-90.44,84.65-134.48,29.59-44.03,73.06-84.32,127.87-88.64,50.25-3.96,99.91,23.92,133.92,61.42,34.01,37.5,55.17,83.84,75.79,129.33,0-.01-241.58,567.73-1128.59,519.07Z"/>
        </g>
        <g class="cls-2">
          <path class="cls-8" d="m747.49,242.79c63.98-42.2,47.08,144.29,106.61,192.57,59.53,48.28,128.7,89.91,165.35,157.22,44.94,82.52,27.34,192.27-35.77,261.89-63.11,69.63-165.41,98.33-257.47,79.47-57.51-11.79-117.72-40.19-171.96-17.72-48.95,20.3-73.79,76.55-77.64,129.39-3.84,52.84,8.37,105.49,10.31,158.45s-8.92,110.8-48.74,145.77c-36.5,32.05-90.43,37.75-137.71,26.6-47.28-11.15-89.63-36.87-131.07-62.22.01-.01-132.81-602.52,578.08-1071.42Z"/>
        </g>
      </g>
      <g>
        <g>
          <path class="cls-10" d="m2709.92,1246.05c-1.62-34.1-4.56-67.91-8.79-101.4-13.34-105.97-39.5-208.7-77.15-306.25-39.03-101.23-90.38-196.89-152.57-284.9-144.21-204.12-346.58-366.97-588.16-462.13-1.89-.8-3.73-1.53-5.66-2.28-19.61-7.62-39.36-14.77-59.23-21.41-92.9-31.09-188.5-51.56-285.05-61.22-69.65-6.97-139.8-8.31-209.8-3.97-53.95,3.33-107.81,10.05-161.28,20.15C803.51,90.46,487.55,306.17,295.4,614.45c-43.03,68.94-79.94,142.72-109.71,219.31-108.26,278.48-118.7,576.18-30.2,860.88,85.9,276.28,263.07,519.14,498.88,683.89,85.23,59.57,178.08,109.07,276,147.13,140.69,54.7,287.88,84.52,437.47,88.63,550.61,15.24,1054.72-319.63,1254.41-833.31,66.88-172.02,96.37-351.98,87.66-534.92Zm-1340.53,1312.65c-143.22-3.93-284.13-32.47-418.87-84.86-93.79-36.46-182.69-83.86-264.29-140.9C212.22,2001.83,27.69,1393.61,237.5,853.9c28.52-73.37,63.87-144.03,105.06-210.03,183.97-295.14,486.49-501.66,829.99-566.61,30.56-5.78,61.25-10.41,92.02-13.86,18.83-2.12,37.67-3.82,56.54-5.07,38.24-2.56,76.53-3.32,114.78-2.34,32.83.85,65.6,3.01,98.26,6.42.06.01.11.01.16.02,2.29.24,4.57.48,6.85.74,33.48,3.72,66.83,8.8,99.96,15.22,69.3,13.43,137.68,32.77,204.43,57.95,3.97,1.49,7.94,3.01,11.9,4.54l.75.29c1.16.45,2.3.91,3.47,1.39l.82.35c216.13,85.05,399.48,226.7,535.31,404.31h.01c23.63,30.89,45.83,62.88,66.5,95.85,35.03,55.84,65.69,114.47,91.62,175.4,1.76,4.11,3.49,8.22,5.2,12.36,40.42,97.87,68.69,201.46,83.26,308.62,4.91,36.04,8.26,72.46,10,109.21,8.35,175.11-19.9,347.42-83.94,512.14-191.19,491.86-673.85,812.5-1201.05,797.89Z"/>
          <path class="cls-1" d="m2464.31,643.11c-72.35-8.83-144.2-21.64-214.91-40.23-158.03-41.57-311.03-113.39-429.77-222.81-85.78-79.03-146.92-192.8-178.5-301.64,69.3,13.43,137.68,32.77,204.43,57.95,3.97,1.49,7.94,3.01,11.9,4.54l.75.29c1.16.45,2.3.91,3.47,1.39l.82.35c216.13,85.05,399.48,226.7,535.31,404.31h.01c23.62,30.87,45.82,62.88,66.49,95.85Z"/>
          <path class="cls-6" d="m2561.13,830.85c-.63-.08-1.26-.17-1.89-.25-98.59-13.17-196.16-32.43-291.45-60.91-192.58-57.58-376.51-154.74-514.99-300.44-106.56-112.11-184.22-254.72-211.64-406.06,33.48,3.72,66.83,8.8,99.96,15.22,31.59,108.84,92.73,222.61,178.5,301.64,118.74,109.42,271.73,181.25,429.77,222.81,70.72,18.59,142.57,31.4,214.91,40.23,35.03,55.84,65.69,114.47,91.62,175.4,1.77,4.12,3.5,8.24,5.21,12.37Z"/>
        </g>
        <g>
          <path class="cls-1" d="m2670.48,1171.8c-234.88-24.88-531.55-57.85-742.03-165.07-185.75-94.62-372.4-226.27-494.58-395.16-102.83-142.15-217.74-386.26-217.35-560.67,73.42-4.9,216.84-17.53,289.83-9.44,27.42,151.35,139.89,315.68,246.45,427.79,138.48,145.7,322.41,242.84,514.99,300.44,95.88,28.67,219.3,58.01,318.54,71.18,40.42,97.87,69.58,223.78,84.14,330.94Z"/>
          <path class="cls-10" d="m2670.48,1138.48c-63.85-6.76-127.68-13.69-191.35-21.97-3.95-.51-7.89-1.03-11.84-1.55-1.81-.24-10.08-1.2-.63-.08-1.59-.19-3.17-.42-4.75-.64-8.74-1.19-17.47-2.41-26.21-3.66-16.77-2.4-33.53-4.92-50.26-7.56-33.64-5.32-67.19-11.18-100.6-17.76-65.72-12.94-131.01-28.62-194.83-49.04-30.6-9.79-60.72-20.81-90.44-32.97-1.72-.7-5.91-2.1,1.76.75-2.08-.78-4.13-1.76-6.17-2.64-3.41-1.47-6.81-2.97-10.2-4.47-7.39-3.3-14.75-6.7-22.05-10.2-14.25-6.83-28.29-14.12-42.28-21.48-60.61-31.95-119.6-67.06-176.14-105.78-14.36-9.84-28.55-19.9-42.57-30.22-6.68-4.91-13.3-9.88-19.9-14.9-1.97-1.5-3.96-2.99-5.91-4.53,5.79,4.56,2.1,1.62.85.64-3.9-3.07-7.82-6.12-11.71-9.22-27.09-21.57-53.38-44.16-78.63-67.85-25-23.45-48.99-47.97-71.69-73.66-11.24-12.72-22.16-25.73-32.73-39.02-1.1-1.39-9.43-11.8-3.72-4.67-2.51-3.13-4.88-6.39-7.28-9.61-4.79-6.4-9.49-12.86-14.1-19.38-34.6-48.85-65.06-100.65-92.42-153.85-14.89-28.96-28.82-58.41-41.7-88.31-.62-1.43-1.22-2.87-1.84-4.3-3.21-7.49,2.84,6.86-.28-.67-1.49-3.6-2.99-7.21-4.47-10.82-3.24-7.94-6.39-15.9-9.46-23.88-5.82-15.13-11.34-30.39-16.53-45.76-9.92-29.41-18.64-59.24-25.62-89.49-3.36-14.55-6.31-29.2-8.75-43.95-.57-3.42-1.1-6.83-1.61-10.26-.25-1.7-.48-3.39-.74-5.1-1.04-7.11.81,6.54.24,1.76-.84-6.99-1.66-13.98-2.28-21-1.19-13.46-1.82-26.97-1.82-40.5-11.11,11.11-22.21,22.21-33.32,33.32,77.39-5.19,154.86-12.31,232.5-12.07,19.13.06,38.3.58,57.34,2.64-10.71-8.15-21.42-16.31-32.14-24.46,17.18,93.45,61.18,181.86,112.29,261.17,51.49,79.89,112.56,155.38,182.08,220.32,69.17,64.61,147.65,119.39,231.02,164.06,83.76,44.87,172.71,80.27,263.75,107.27,92.65,27.48,187.24,50.25,282.73,65.29,13.39,2.11,26.82,3.96,40.25,5.76-10.71-8.15-21.42-16.31-32.14-24.46,33.88,82.37,56.14,169.64,72.28,257.09,4.52,24.51,8.48,49.14,11.86,73.84,1.04,7.65,9,16.23,15.32,19.91,7.14,4.18,17.67,5.95,25.68,3.36,8.06-2.61,15.84-7.61,19.91-15.32,4.48-8.49,4.64-16.26,3.36-25.68-12.12-88.64-31.09-176.83-58.85-261.92-7.6-23.3-15.96-46.35-25.29-69.02-6.37-15.47-15.84-22.28-32.14-24.46.81.11,8,1.1,2,.25-1.15-.16-2.3-.33-3.45-.48-2.71-.39-5.42-.78-8.13-1.18-5.51-.81-11.01-1.66-16.53-2.54-11.74-1.88-23.47-3.9-35.16-6.03-23.88-4.35-47.69-9.18-71.41-14.37-46.83-10.25-93.39-21.87-139.56-34.8-43.94-12.31-87.45-25.98-130.2-41.97-10.58-3.96-21.1-8.05-31.58-12.25-5.23-2.11-10.46-4.25-15.67-6.42-1.09-.46-2.22-1.05-3.34-1.41.9.28,6.82,2.91,1.27.53-2.97-1.27-5.93-2.54-8.88-3.83-20.7-9-41.15-18.54-61.35-28.62-40.99-20.48-80.87-43.22-119.19-68.38-19.11-12.54-37.82-25.68-56.08-39.43-2.24-1.68-4.47-3.39-6.7-5.09-5.05-3.85,4.13,3.26-.86-.67-4.73-3.71-9.44-7.44-14.1-11.22-9.03-7.32-17.93-14.78-26.69-22.4-33.73-29.36-65.16-61.16-94.7-94.71-15.15-17.21-29.81-34.84-43.96-52.87-.8-1.02-6.26-8.02-3.45-4.41,2.76,3.56-2.81-3.68-3.42-4.5-3.51-4.63-6.99-9.27-10.43-13.95-7.19-9.75-14.23-19.62-21.11-29.59-26.86-38.92-51.43-79.53-72.47-121.89-5.3-10.66-10.36-21.44-15.17-32.32-.98-2.23-1.94-4.48-2.92-6.71-1.9-4.3,2.3,5.59.51,1.25-.46-1.13-.93-2.24-1.39-3.36-2.29-5.57-4.52-11.17-6.66-16.81-7.94-20.84-14.84-42.11-20.3-63.74-2.59-10.26-4.82-20.61-6.74-31.02-2.84-15.43-18.33-22.97-32.14-24.46-36.1-3.91-72.75-2.98-108.97-1.71-41.15,1.44-82.24,4.14-123.31,7.06-19.18,1.36-38.36,2.8-57.56,4.08-17.97,1.2-33.32,14.29-33.32,33.32.01,61.02,11.97,122.18,28.72,180.66,18.64,65.09,43.93,128.33,72.74,189.56,55.32,117.55,125.66,227.98,216.32,321.49,98.85,101.96,216.55,185.61,340.02,255.08,59.02,33.21,119.49,62.99,183.14,86.3,62.91,23.05,127.75,40.63,193.13,55.11,134.07,29.68,270.7,46.36,407.08,61.11,15.38,1.66,30.74,3.3,46.12,4.93,17.39,1.84,34.07-16.64,33.32-33.32-.86-19.61-14.67-31.32-33.3-33.3Z"/>
        </g>
        <g>
          <path class="cls-1" d="m2611.05,908.17c-190.52-16.09-440.53-49.41-615.42-128.61-154.35-69.88-278.51-166.69-385.25-293.99-99.76-118.97-160.88-263.5-174.5-429.56-.05-.51-.1-1.04-.12-1.55-.4-4.93-.75-9.91-1.07-14.95,58.94-4.64,141.39,12.38,200.61,17.67,1.81,7.06,3.74,14.14,5.8,21.25,31.59,108.84,92.73,222.61,178.5,301.64,118.74,109.42,271.73,181.25,429.77,222.81,70.72,18.59,171.42,35.94,243.78,44.77l14.32,21.36c48.77,72.76,83.88,153.81,103.57,239.16h0Z"/>
          <path class="cls-10" d="m2611.05,874.85c-60.48-5.13-120.86-11.45-181.02-19.52,2.96.4,5.9.79,8.86,1.19-90.08-12.14-179.89-27.98-267.78-51.39-41.6-11.08-82.77-23.9-122.93-39.43-4.69-1.82-9.38-3.67-14.04-5.56-2.45-.99-4.88-2.01-7.33-3.02-1.97-.81-5.7-2.56,3.11,1.32-1.33-.58-2.68-1.14-4.01-1.71-9.96-4.29-19.82-8.79-29.63-13.41-20.58-9.71-40.86-20.02-60.8-30.97-38.64-21.21-75.96-44.8-111.63-70.7-4.31-3.14-8.62-6.3-12.88-9.5-2.01-1.5-4.01-3.02-6.01-4.53-.99-.76-1.99-1.53-2.99-2.29-5.54-4.22,6.26,4.91.79.61-8.39-6.58-16.71-13.22-24.91-20.03-16.93-14.03-33.41-28.6-49.43-43.65-32.55-30.57-63.18-63.16-91.97-97.28-6.88-8.15-13.6-16.46-20.18-24.84-3.34-4.25,1.51,1.98,1.78,2.3-.98-1.21-1.89-2.47-2.84-3.72-1.5-1.99-3.01-3.97-4.48-5.97-3.33-4.5-6.63-9.03-9.86-13.6-12.57-17.73-24.37-36-35.35-54.75-10.83-18.49-20.85-37.45-30.04-56.82-2.4-5.07-4.75-10.17-7.03-15.28-1.02-2.28-2.02-4.57-3.02-6.86-.5-1.15-.99-2.29-1.48-3.44-2.45-5.67,2.97,7.2.44,1.05-4.05-9.86-7.97-19.76-11.64-29.77-15.4-42-26.97-85.37-34.83-129.4-1.95-10.98-3.66-21.99-5.17-33.04.4,2.96.79,5.9,1.19,8.86-2.69-19.99-4.64-40.06-5.93-60.19-11.11,11.11-22.21,22.21-33.32,33.32,43.19-3.24,86.85,3.19,129.56,8.92-2.96-.4-5.9-.79-8.86-1.19,26.6,3.59,53.17,7.51,79.9,9.94-10.71-8.15-21.42-16.31-32.14-24.46,18.79,72.98,48.7,144,88.21,208.19,20.35,33.04,43.59,64.56,69.42,93.53,24.28,27.23,51.58,51.61,80.16,74.26,59.86,47.44,124.97,87.22,194.27,119.32,69.13,32.03,141.31,57.64,215.19,76.24,69.51,17.5,140.56,29.75,211.56,39.36,10.38,1.41,20.77,2.79,31.18,4.06-9.6-5.5-19.18-11-28.78-16.5,15.99,23.86,31.84,47.73,45.8,72.87,10.42,18.77,19.99,38.01,28.71,57.64.98,2.22,1.95,4.43,2.91,6.66,3.27,7.59-2.48-6.03.69,1.6,2.12,5.11,4.18,10.26,6.18,15.43,3.88,10.01,7.54,20.1,10.97,30.28,7.54,22.36,13.97,45.09,19.28,68.08,3.93,17,24.37,28.66,40.99,23.28,17.78-5.76,27.48-22.78,23.28-40.99-20.75-89.85-58.78-175.29-110.07-251.81-3.53-5.27-6.98-10.6-10.59-15.8-1.81-2.59-3.67-5.3-5.79-7.61-7.2-7.84-17.04-8.94-26.9-10.17-5.74-.71-11.49-1.45-17.22-2.23,2.96.4,5.9.79,8.86,1.19-68.73-9.25-137.41-21.08-204.81-37.49-33.95-8.26-67.55-18.1-100.67-29.26-17.05-5.74-33.98-11.88-50.76-18.39-8.39-3.26-16.72-6.62-25.03-10.07-.92-.39-1.84-.79-2.76-1.15-.27-.11,6.74,2.87,3.36,1.42-2.14-.92-4.29-1.83-6.42-2.75-4.28-1.85-8.54-3.72-12.8-5.62-65.17-29.17-127.6-64.82-184.63-107.84-1.58-1.19-3.14-2.39-4.71-3.57-4.79-3.64,5.23,4.1.51.39-3.61-2.84-7.22-5.7-10.8-8.58-6.89-5.57-13.69-11.26-20.41-17.05-13.26-11.46-26.17-23.34-38.39-35.92-12.21-12.59-23.79-25.79-34.74-39.48-1.43-1.78-2.85-3.59-4.25-5.38-3.71-4.71,4.01,5.32.41.52-2.75-3.67-5.51-7.33-8.22-11.05-5.21-7.19-10.26-14.47-15.17-21.86-19.64-29.58-36.89-60.74-51.84-92.95-1.78-3.85-3.54-7.71-5.26-11.58-.92-2.08-1.84-4.17-2.74-6.26-.39-.9-.78-1.79-1.15-2.69-1.79-4.14.56,1.45,1.08,2.58-3.67-7.86-6.6-16.19-9.67-24.3-6.06-16.02-11.57-32.26-16.49-48.66-2.74-9.12-5.28-18.31-7.66-27.53-3.91-15.21-17.53-23.14-32.14-24.46-17.33-1.58-34.58-3.83-51.83-6.14,2.96.4,5.9.79,8.86,1.19-51.85-6.97-105.13-16.65-157.63-12.71-17.07,1.28-34.55,14.25-33.32,33.32,7.17,112.1,35.2,221.64,86.47,321.79,48.59,94.9,118.54,178.2,196.22,250.67,79.04,73.75,168.95,135.67,266.17,182.95,95.96,46.68,198.35,76.38,302.64,97.75,106.4,21.8,214.47,35.65,322.56,45.68,11.86,1.1,23.74,2.14,35.61,3.15,17.41,1.48,34.09-16.38,33.32-33.32-.85-19.35-14.65-31.78-33.31-33.36Z"/>
        </g>
      </g>
      <path class="cls-4" d="m1302.1,2625.47l-8.69,3.96-474.22-222.45-10.01,2.36-412.23,98.4-1.81-1.6-266.79-233.84-33.71-522.45-23.98-371.42c-2.31-35.88,41.24-55.3,66.38-29.6l240.15,245.44,10.36-1.04,446.22-43.99h.07l492.98,273.95,4.31,2.36"/>
      <path class="cls-10" d="m396.24,2531.56c-15.09,0-27.46-12.07-27.77-27.22l-19.05-909.53c-.33-15.35,11.86-28.05,27.2-28.38,15.26-.46,28.05,11.86,28.38,27.2l19.05,909.53c.33,15.35-11.86,28.05-27.2,28.38-.21.01-.41.01-.61.01Z"/>
      <path class="cls-10" d="m822.05,2442.53h-.47c-15.35-.25-27.59-12.9-27.34-28.26l14.25-859.01c.25-15.35,13.07-27.62,28.26-27.34,15.35.25,27.59,12.9,27.34,28.26l-14.25,859.01c-.25,15.2-12.65,27.34-27.79,27.34Z"/>
      <path class="cls-10" d="m1297.6,2654.9c-.28,0-.57,0-.85-.01-15.35-.46-27.41-13.27-26.95-28.62l24.32-811.75c.46-15.34,13.44-27.46,28.62-26.95,15.35.46,27.41,13.27,26.95,28.62l-24.32,811.75c-.46,15.06-12.81,26.96-27.77,26.96Z"/>
      <g>
        <g>
          <ellipse class="cls-7" cx="102.57" cy="1749.54" rx="52.12" ry="78.18" transform="translate(-1543.85 1148.95) rotate(-66.6)"/>
          <ellipse class="cls-7" cx="107.46" cy="1863.06" rx="52.12" ry="78.18" transform="translate(-1645.09 1221.87) rotate(-66.6)"/>
          <ellipse class="cls-7" cx="112.71" cy="1992.12" rx="52.12" ry="78.18" transform="translate(-1760.37 1304.5) rotate(-66.6)"/>
        </g>
        <g>
          <path class="cls-10" d="m124.17,1834.23c-17.49,0-35.88-3.9-53.39-11.48-54.54-23.59-83.32-74.29-65.53-115.43h0c17.8-41.14,74.46-54.87,129-31.26,24.15,10.45,44.39,26.91,56.98,46.37,14.64,22.62,17.76,47.79,8.55,69.06-9.2,21.27-29.69,36.23-56.19,41.04-6.28,1.14-12.8,1.7-19.42,1.7Zm-67.89-104.83c-3.84,8.89,8.79,30.31,36.58,42.33,13.98,6.05,28.85,8.28,40.8,6.11,7.79-1.42,13.44-4.56,15.1-8.42,1.67-3.85.1-10.13-4.2-16.77-6.59-10.19-18.39-19.51-32.38-25.56-27.8-12.03-52.06-6.57-55.9,2.31Z"/>
          <path class="cls-10" d="m128.98,1947.77c-17.01,0-35.27-3.72-53.3-11.52-54.54-23.6-83.32-74.3-65.53-115.43h0c17.8-41.13,74.45-54.87,129-31.27,54.54,23.6,83.32,74.3,65.53,115.43-11.91,27.54-41.25,42.8-75.7,42.8Zm-67.82-104.88c-3.84,8.88,8.79,30.31,36.58,42.33,27.79,12.02,52.04,6.57,55.9-2.31,3.84-8.88-8.79-30.31-36.58-42.33-27.79-12.03-52.04-6.57-55.9,2.31h0Z"/>
          <path class="cls-10" d="m134.31,2076.78c-17.49,0-35.88-3.9-53.39-11.48-54.54-23.59-83.32-74.3-65.53-115.43h0c9.21-21.27,29.69-36.23,56.2-41.04,22.79-4.14,48.65-.67,72.8,9.78s44.39,26.91,56.98,46.37c14.64,22.61,17.76,47.79,8.55,69.06-9.2,21.27-29.69,36.23-56.19,41.04-6.29,1.14-12.8,1.7-19.42,1.7Zm-67.89-104.83c-3.84,8.88,8.79,30.31,36.58,42.33,13.98,6.05,28.85,8.28,40.79,6.11,7.79-1.42,13.44-4.56,15.11-8.42s.1-10.13-4.2-16.78c-6.59-10.19-18.39-19.51-32.38-25.56s-28.84-8.26-40.79-6.11c-7.8,1.43-13.45,4.58-15.11,8.43h0Z"/>
        </g>
      </g>
      <g>
        <g>
          <ellipse class="cls-7" cx="1304.83" cy="2032.74" rx="52.12" ry="78.18" transform="translate(-1078.92 2423.11) rotate(-66.6)"/>
          <ellipse class="cls-7" cx="1309.74" cy="2146.23" rx="52.12" ry="78.18" transform="translate(-1180.11 2496.03) rotate(-66.6)"/>
          <ellipse class="cls-7" cx="1314.98" cy="2275.3" rx="52.12" ry="78.18" transform="translate(-1295.41 2578.66) rotate(-66.6)"/>
        </g>
        <g>
          <path class="cls-10" d="m1326.36,2117.47c-17.49,0-35.88-3.9-53.39-11.48-54.54-23.59-83.32-74.29-65.53-115.43h0c17.8-41.14,74.46-54.87,129-31.26,24.15,10.45,44.39,26.91,56.98,46.37,14.64,22.62,17.76,47.79,8.55,69.06-9.2,21.27-29.69,36.23-56.19,41.04-6.28,1.13-12.78,1.7-19.42,1.7Zm-67.89-104.84c-3.84,8.89,8.79,30.31,36.58,42.33,13.98,6.05,28.85,8.28,40.8,6.11,7.79-1.42,13.44-4.56,15.1-8.42,1.67-3.85.1-10.13-4.2-16.77-6.59-10.19-18.39-19.51-32.38-25.56-27.79-12.03-52.04-6.57-55.9,2.31Z"/>
          <path class="cls-10" d="m1331.17,2231c-17.01,0-35.27-3.72-53.3-11.52-54.54-23.6-83.32-74.3-65.53-115.43h0c17.8-41.13,74.45-54.87,129-31.27,54.54,23.6,83.32,74.3,65.53,115.43-11.91,27.54-41.25,42.8-75.7,42.8Zm-67.81-104.86c-3.84,8.88,8.79,30.31,36.58,42.33,27.79,12.02,52.04,6.57,55.9-2.31,3.84-8.88-8.79-30.31-36.58-42.33-27.8-12.03-52.06-6.58-55.9,2.31h0Z"/>
          <path class="cls-10" d="m1336.5,2360.03c-17.49,0-35.88-3.9-53.39-11.48-54.54-23.59-83.32-74.3-65.53-115.43h0c9.21-21.27,29.69-36.23,56.2-41.04,22.79-4.14,48.65-.67,72.8,9.78,24.15,10.45,44.39,26.91,56.98,46.37,14.64,22.61,17.76,47.79,8.55,69.06-9.2,21.27-29.69,36.23-56.19,41.04-6.28,1.13-12.78,1.7-19.42,1.7Zm-67.89-104.84c-3.84,8.88,8.79,30.31,36.58,42.33,13.98,6.05,28.85,8.28,40.79,6.11,7.79-1.42,13.44-4.56,15.11-8.42s.1-10.13-4.2-16.78c-6.59-10.19-18.39-19.51-32.38-25.56s-28.84-8.26-40.79-6.11c-7.79,1.43-13.44,4.58-15.11,8.43h0Z"/>
        </g>
      </g>
      <circle class="cls-10" cx="1030.96" cy="975.67" r="160.4"/>
      <circle class="cls-10" cx="1617.58" cy="1161.51" r="160.4" transform="translate(-347.54 1484) rotate(-45)"/>
      <path class="cls-10" d="m992.99,1383.85c3.65,13.38,7.59,26.71,12.63,39.64,6.33,16.26,13.4,32.32,23.07,46.91,2.08,3.14,4.27,6.2,6.56,9.2,4.02,5.27,8.02,10.59,12.37,15.6,3.74,4.31,7.74,8.41,11.95,12.27,6.65,6.13,13.86,11.63,21.08,17.05,5,3.76,10.2,7.23,15.58,10.45,5.51,3.3,11.21,6.3,17.04,9,8.95,4.16,18.13,8.02,27.47,11.24,16.58,5.72,33.61,8.59,50.98,10.66,14.25,1.7,28.68,1.87,42.98.72,17.4-1.41,34.89-4.04,51.8-8.42,16.36-4.23,32-10.35,47.44-17.18,11.64-5.15,22.91-11.24,33.48-18.37,2.46-1.66,4.87-3.37,7.25-5.15,4.59-2.47,8.28-5.85,11.05-10.14,3.48-3.8,5.83-8.26,7.05-13.39,1.64-5.23,1.88-10.47.7-15.7-.24-5.25-1.79-10.12-4.68-14.64-2.05-2.65-4.11-5.32-6.16-7.97-4.92-4.88-10.71-8.25-17.38-10.13-3.49-.47-6.98-.93-10.47-1.41-7.11.02-13.73,1.82-19.87,5.38-13.72,10.21-28.79,18.49-44.53,25.16,3.14-1.32,6.28-2.64,9.4-3.97-20.19,8.49-41.49,14.31-63.19,17.24,3.49-.47,6.98-.93,10.47-1.41-19.27,2.56-38.82,2.81-58.1.27,3.49.47,6.98.93,10.47,1.41-17.17-2.31-33.98-6.86-49.95-13.58,3.14,1.32,6.28,2.64,9.4,3.97-14.37-6.11-27.97-13.95-40.34-23.46,2.65,2.05,5.32,4.11,7.97,6.16-10.86-8.4-20.64-18.04-29.05-28.9,2.05,2.65,4.11,5.32,6.16,7.97-9.62-12.52-17.3-26.33-23.46-40.85,1.32,3.14,2.64,6.28,3.97,9.4-6.26-14.89-10.94-30.38-15.18-45.95-1.22-5.13-3.56-9.58-7.05-13.39-2.77-4.29-6.46-7.67-11.05-10.14-4.52-2.88-9.4-4.43-14.64-4.68-5.23-1.18-10.47-.93-15.7.7-3.14,1.32-6.28,2.64-9.4,3.97-5.91,3.5-10.63,8.22-14.13,14.13-1.32,3.14-2.64,6.28-3.97,9.4-1.89,6.98-1.89,13.96-.02,20.94h0Z"/>
      <circle class="cls-5" cx="1029.23" cy="975.67" r="275.48"/>
      <path class="cls-10" d="m794.18,787.68c-17.9,10.13-36.35,19.22-55.29,27.24,2.17-.92,4.34-1.83,6.51-2.75-34.46,14.53-70.38,25.52-107.09,32.67-10.38,2.02-20.82,3.73-31.3,5.14,2.41-.33,4.83-.65,7.25-.97-31.2,4.16-62.85,5.83-94.3,3.83-8.7-.56-17.38-1.41-26.02-2.56,2.41.33,4.83.65,7.25.97-25.12-3.42-49.88-9.54-73.27-19.35,2.17.92,4.34,1.83,6.51,2.75-17.04-7.21-33.32-16.3-48-27.6,1.84,1.42,3.68,2.85,5.51,4.27-12.27-9.55-23.29-20.6-32.84-32.87,1.42,1.84,2.85,3.68,4.27,5.51-9.48-12.26-17.41-25.65-23.48-39.91.92,2.17,1.83,4.34,2.75,6.51-5.33-12.7-9.12-25.99-11.01-39.65.33,2.41.65,4.83.97,7.25-1.58-11.86-1.7-23.85-.15-35.71-.33,2.41-.65,4.83-.97,7.25.73-5.38,1.78-10.69,3.17-15.93,1.82-6.88.86-14.84-2.75-21.01-3.31-5.66-9.79-11.05-16.3-12.53-6.98-1.59-14.82-1.25-21.01,2.75-5.94,3.83-10.69,9.32-12.53,16.3-11.5,43.44-2.87,89.46,18.56,128.4,21.16,38.42,54.92,69.37,94.2,88.59,42.69,20.88,89.63,30.06,136.93,31.69,22.19.76,44.43-.23,66.52-2.51,24.94-2.58,49.77-6.52,74.18-12.23,46.62-10.89,91.96-28.05,134.32-50.31,5.02-2.63,9.97-5.34,14.9-8.14,5.91-3.34,10.74-9.78,12.53-16.3,1.79-6.53.98-15.22-2.75-21.01-3.76-5.82-9.34-10.94-16.3-12.53-7.19-1.61-14.43-.92-20.98,2.79h0Z"/>
      <path class="cls-10" d="m1028.47,374.43l-290.54,215.53c-40.23,29.85-97.04,21.42-126.88-18.81h0c-29.85-40.23-21.42-97.04,18.81-126.88l290.54-215.53c40.23-29.85,97.04-21.42,126.88,18.81h0c29.85,40.23,21.42,97.04-18.81,126.88Z"/>
      <path class="cls-1" d="m937.43,404.44l-144.37,107.09c-26.86,19.93-64.8,14.31-84.74-12.55h0c-19.93-26.86-14.31-64.8,12.55-84.74l144.37-107.09c26.86-19.93,64.8-14.31,84.74,12.55h0c19.95,26.88,14.32,64.8-12.55,84.74Z"/>
    </g>
  </g>
</svg>